<svg width="15" height="15" viewBox="0 0 15 15" fill="none" xmlns="http://www.w3.org/2000/svg">
<rect width="15" height="15" rx="5" fill="#15151B"/>
<path d="M7.5 1.40625C6.29477 1.40625 5.11661 1.76364 4.1145 2.43323C3.11238 3.10282 2.33133 4.05454 1.87011 5.16802C1.40889 6.28151 1.28821 7.50676 1.52334 8.68883C1.75847 9.8709 2.33884 10.9567 3.19107 11.8089C4.0433 12.6612 5.1291 13.2415 6.31117 13.4767C7.49324 13.7118 8.71849 13.5911 9.83198 13.1299C10.9455 12.6687 11.8972 11.8876 12.5668 10.8855C13.2364 9.88339 13.5938 8.70523 13.5938 7.5C13.592 5.88436 12.9495 4.33538 11.807 3.19295C10.6646 2.05052 9.11564 1.40796 7.5 1.40625ZM7.96875 12.6346V8.90625H9.375C9.49932 8.90625 9.61855 8.85686 9.70646 8.76896C9.79437 8.68105 9.84375 8.56182 9.84375 8.4375C9.84375 8.31318 9.79437 8.19395 9.70646 8.10604C9.61855 8.01814 9.49932 7.96875 9.375 7.96875H7.96875V6.5625C7.96875 6.31386 8.06752 6.0754 8.24334 5.89959C8.41916 5.72377 8.65761 5.625 8.90625 5.625H9.84375C9.96807 5.625 10.0873 5.57561 10.1752 5.48771C10.2631 5.3998 10.3125 5.28057 10.3125 5.15625C10.3125 5.03193 10.2631 4.9127 10.1752 4.82479C10.0873 4.73689 9.96807 4.6875 9.84375 4.6875H8.90625C8.40897 4.6875 7.93206 4.88504 7.58043 5.23667C7.2288 5.58831 7.03125 6.06522 7.03125 6.5625V7.96875H5.625C5.50068 7.96875 5.38145 8.01814 5.29355 8.10604C5.20564 8.19395 5.15625 8.31318 5.15625 8.4375C5.15625 8.56182 5.20564 8.68105 5.29355 8.76896C5.38145 8.85686 5.50068 8.90625 5.625 8.90625H7.03125V12.6346C5.70984 12.5139 4.4858 11.8885 3.61374 10.8885C2.74167 9.88837 2.28872 8.59058 2.34909 7.26505C2.40947 5.93952 2.97853 4.68829 3.9379 3.77162C4.89727 2.85496 6.1731 2.34342 7.5 2.34342C8.82691 2.34342 10.1027 2.85496 11.0621 3.77162C12.0215 4.68829 12.5905 5.93952 12.6509 7.26505C12.7113 8.59058 12.2583 9.88837 11.3863 10.8885C10.5142 11.8885 9.29016 12.5139 7.96875 12.6346Z" fill="#A6A9AE"/>
</svg>
