<svg width="15" height="15" viewBox="0 0 15 15" fill="none" xmlns="http://www.w3.org/2000/svg">
<rect width="15" height="15" rx="5" fill="#15151B"/>
<path d="M7.5 4.6875C6.94374 4.6875 6.39997 4.85245 5.93746 5.16149C5.47495 5.47053 5.11446 5.90979 4.90159 6.4237C4.68872 6.93762 4.63302 7.50312 4.74154 8.04869C4.85006 8.59426 5.11793 9.0954 5.51126 9.48874C5.9046 9.88207 6.40574 10.1499 6.95131 10.2585C7.49688 10.367 8.06238 10.3113 8.5763 10.0984C9.09021 9.88554 9.52947 9.52505 9.83851 9.06254C10.1475 8.60003 10.3125 8.05626 10.3125 7.5C10.3117 6.75432 10.0152 6.0394 9.48788 5.51212C8.9606 4.98484 8.24568 4.68828 7.5 4.6875ZM7.5 9.375C7.12916 9.375 6.76665 9.26503 6.45831 9.05901C6.14996 8.85298 5.90964 8.56014 5.76773 8.21753C5.62581 7.87492 5.58868 7.49792 5.66103 7.13421C5.73337 6.77049 5.91195 6.4364 6.17417 6.17417C6.4364 5.91195 6.77049 5.73337 7.13421 5.66103C7.49792 5.58868 7.87492 5.62581 8.21753 5.76773C8.56014 5.90964 8.85298 6.14996 9.05901 6.45831C9.26503 6.76665 9.375 7.12916 9.375 7.5C9.375 7.99728 9.17746 8.47419 8.82582 8.82582C8.47419 9.17746 7.99728 9.375 7.5 9.375ZM10.3125 1.40625H4.6875C3.81754 1.40718 2.98349 1.75318 2.36833 2.36833C1.75318 2.98349 1.40718 3.81754 1.40625 4.6875V10.3125C1.40718 11.1825 1.75318 12.0165 2.36833 12.6317C2.98349 13.2468 3.81754 13.5928 4.6875 13.5938H10.3125C11.1825 13.5928 12.0165 13.2468 12.6317 12.6317C13.2468 12.0165 13.5928 11.1825 13.5938 10.3125V4.6875C13.5928 3.81754 13.2468 2.98349 12.6317 2.36833C12.0165 1.75318 11.1825 1.40718 10.3125 1.40625ZM12.6562 10.3125C12.6562 10.9341 12.4093 11.5302 11.9698 11.9698C11.5302 12.4093 10.9341 12.6562 10.3125 12.6562H4.6875C4.0659 12.6562 3.46976 12.4093 3.03022 11.9698C2.59068 11.5302 2.34375 10.9341 2.34375 10.3125V4.6875C2.34375 4.0659 2.59068 3.46976 3.03022 3.03022C3.46976 2.59068 4.0659 2.34375 4.6875 2.34375H10.3125C10.9341 2.34375 11.5302 2.59068 11.9698 3.03022C12.4093 3.46976 12.6562 4.0659 12.6562 4.6875V10.3125ZM11.25 4.45312C11.25 4.59219 11.2088 4.72813 11.1315 4.84376C11.0542 4.95939 10.9444 5.04951 10.8159 5.10273C10.6875 5.15595 10.5461 5.16987 10.4097 5.14274C10.2733 5.11561 10.148 5.04864 10.0497 4.95031C9.95136 4.85198 9.88439 4.72669 9.85726 4.5903C9.83013 4.45391 9.84406 4.31253 9.89727 4.18405C9.95049 4.05557 10.0406 3.94576 10.1562 3.8685C10.2719 3.79124 10.4078 3.75 10.5469 3.75C10.7334 3.75 10.9122 3.82408 11.0441 3.95594C11.1759 4.0878 11.25 4.26664 11.25 4.45312Z" fill="#A6A9AE"/>
</svg>
