<svg width="15" height="15" viewBox="0 0 15 15" fill="none" xmlns="http://www.w3.org/2000/svg">
<rect width="15" height="15" rx="5" fill="#15151B"/>
<path d="M13.125 4.21875C12.3793 4.21797 11.6644 3.92141 11.1371 3.39413C10.6098 2.86685 10.3133 2.15193 10.3125 1.40625C10.3125 1.28193 10.2631 1.1627 10.1752 1.07479C10.0873 0.986886 9.96807 0.9375 9.84375 0.9375H7.5C7.37568 0.9375 7.25645 0.986886 7.16854 1.07479C7.08064 1.1627 7.03125 1.28193 7.03125 1.40625V9.14062C7.03115 9.35032 6.97479 9.55615 6.86804 9.73665C6.76129 9.91714 6.60807 10.0657 6.42435 10.1668C6.24063 10.2679 6.03315 10.3178 5.82355 10.3114C5.61395 10.305 5.40991 10.2425 5.23272 10.1303C5.05552 10.0182 4.91166 9.86057 4.81614 9.67389C4.72062 9.48721 4.67694 9.27832 4.68966 9.06901C4.70238 8.8597 4.77103 8.65763 4.88845 8.4839C5.00587 8.31016 5.16776 8.17111 5.35723 8.08125C5.43737 8.04321 5.50508 7.98321 5.55248 7.90822C5.59988 7.83323 5.62503 7.74633 5.625 7.65762V5.15625C5.62503 5.08773 5.61004 5.02004 5.58108 4.95794C5.55212 4.89584 5.5099 4.84084 5.45739 4.79682C5.40488 4.7528 5.34336 4.72083 5.27715 4.70316C5.21095 4.68549 5.14168 4.68254 5.07422 4.69453C2.98301 5.06719 1.40625 6.97852 1.40625 9.14062C1.40625 10.3217 1.87542 11.4543 2.71054 12.2895C3.54566 13.1246 4.67833 13.5938 5.85938 13.5938C7.04042 13.5938 8.17309 13.1246 9.00821 12.2895C9.84333 11.4543 10.3125 10.3217 10.3125 9.14062V6.81387C11.1807 7.26682 12.1458 7.50227 13.125 7.5C13.2493 7.5 13.3685 7.45061 13.4565 7.36271C13.5444 7.2748 13.5938 7.15557 13.5938 7.03125V4.6875C13.5938 4.56318 13.5444 4.44395 13.4565 4.35604C13.3685 4.26814 13.2493 4.21875 13.125 4.21875ZM12.6562 6.54141C11.7402 6.46023 10.8631 6.13331 10.1174 5.59512C10.0473 5.54473 9.96465 5.51467 9.87857 5.50826C9.79249 5.50184 9.7063 5.51933 9.62952 5.55878C9.55274 5.59823 9.48835 5.65811 9.44344 5.73183C9.39853 5.80555 9.37484 5.89024 9.375 5.97656V9.14062C9.375 10.073 9.0046 10.9672 8.3453 11.6265C7.68599 12.2859 6.79178 12.6562 5.85938 12.6562C4.92697 12.6562 4.03276 12.2859 3.37345 11.6265C2.71415 10.9672 2.34375 10.073 2.34375 9.14062C2.34375 7.62305 3.31875 6.26191 4.6875 5.76562V7.38691C4.38448 7.58938 4.13909 7.86689 3.97523 8.19241C3.81138 8.51793 3.73466 8.88035 3.75254 9.24434C3.77043 9.60833 3.88231 9.96148 4.07729 10.2694C4.27227 10.5773 4.54368 10.8294 4.86509 11.0012C5.1865 11.1729 5.54693 11.2585 5.91125 11.2496C6.27557 11.2406 6.63135 11.1374 6.94393 10.95C7.2565 10.7626 7.51519 10.4975 7.69479 10.1804C7.8744 9.86328 7.96878 9.50506 7.96875 9.14062V1.875H9.4043C9.50971 2.70063 9.88623 3.46791 10.4748 4.05647C11.0633 4.64502 11.8306 5.02154 12.6562 5.12695V6.54141Z" fill="#A6A9AE"/>
</svg>
