<svg width="15" height="15" viewBox="0 0 15 15" fill="none" xmlns="http://www.w3.org/2000/svg">
<rect width="15" height="15" rx="5" fill="#15151B"/>
<path d="M9.63516 7.10977L6.82266 5.23477C6.75205 5.18766 6.66997 5.1606 6.58518 5.1565C6.5004 5.15239 6.41609 5.17138 6.34126 5.21144C6.26642 5.25151 6.20387 5.31114 6.16028 5.38398C6.11669 5.45681 6.09369 5.54012 6.09375 5.625V9.375C6.09369 9.45989 6.11669 9.54319 6.16028 9.61603C6.20387 9.68886 6.26642 9.7485 6.34126 9.78856C6.41609 9.82862 6.5004 9.84761 6.58518 9.84351C6.66997 9.8394 6.75205 9.81235 6.82266 9.76524L9.63516 7.89024C9.69945 7.84745 9.75218 7.78943 9.78865 7.72135C9.82512 7.65327 9.84421 7.57724 9.84421 7.5C9.84421 7.42277 9.82512 7.34673 9.78865 7.27865C9.75218 7.21057 9.69945 7.15256 9.63516 7.10977ZM7.03125 8.49903V6.50391L8.53008 7.5L7.03125 8.49903ZM13.7303 4.07344C13.6751 3.85743 13.5693 3.65765 13.4217 3.49057C13.274 3.32349 13.0888 3.1939 12.8812 3.1125C10.8727 2.33672 7.67578 2.34375 7.5 2.34375C7.32422 2.34375 4.12734 2.33672 2.11875 3.1125C1.91119 3.1939 1.72596 3.32349 1.57834 3.49057C1.43072 3.65765 1.32494 3.85743 1.26973 4.07344C1.11797 4.65821 0.9375 5.72696 0.9375 7.5C0.9375 9.27305 1.11797 10.3418 1.26973 10.9266C1.32485 11.1427 1.4306 11.3426 1.57822 11.5098C1.72585 11.677 1.91112 11.8066 2.11875 11.8881C4.04297 12.6305 7.05469 12.6563 7.46133 12.6563H7.53867C7.94531 12.6563 10.9588 12.6305 12.8812 11.8881C13.0889 11.8066 13.2742 11.677 13.4218 11.5098C13.5694 11.3426 13.6751 11.1427 13.7303 10.9266C13.882 10.3406 14.0625 9.27305 14.0625 7.5C14.0625 5.72696 13.882 4.65821 13.7303 4.07344ZM12.8227 10.6945C12.8048 10.7664 12.7702 10.8331 12.7216 10.889C12.673 10.9449 12.6119 10.9885 12.5432 11.0162C10.6887 11.7322 7.53457 11.7193 7.5041 11.7193H7.5C7.46836 11.7193 4.3166 11.7311 2.46094 11.0162C2.39225 10.9885 2.33111 10.9449 2.28252 10.889C2.23394 10.8331 2.1993 10.7664 2.18145 10.6945C2.03906 10.1596 1.875 9.17403 1.875 7.5C1.875 5.82598 2.03906 4.84043 2.17734 4.3084C2.19487 4.23608 2.22936 4.16898 2.27796 4.11264C2.32656 4.05629 2.38788 4.01233 2.45684 3.98438C4.24512 3.29356 7.2416 3.28125 7.48711 3.28125H7.50293C7.53457 3.28125 10.6893 3.27071 12.542 3.98438C12.6107 4.0121 12.6718 4.05571 12.7204 4.11162C12.769 4.16754 12.8036 4.23417 12.8215 4.30606C12.9609 4.84043 13.125 5.82598 13.125 7.5C13.125 9.17403 12.9609 10.1596 12.8227 10.6916V10.6945Z" fill="#A6A9AE"/>
</svg>
