<svg width="290" height="52" viewBox="0 0 290 52" fill="none" xmlns="http://www.w3.org/2000/svg">
<rect width="286" height="52" rx="8" fill="#000C1D" fill-opacity="0.65"/>
<rect x="0.5" y="0.5" width="285" height="51" rx="7.5" stroke="#A6A9AE" stroke-opacity="0.48"/>
<path d="M41.1724 29.4602L35.2929 26.6477C35.0614 26.5373 34.8037 26.4873 34.5456 26.5028C34.2875 26.5182 34.0382 26.5985 33.823 26.7355L31.1239 28.4582C29.8848 27.8066 28.8652 26.8311 28.1841 25.6457L29.9847 23.0635C30.1279 22.8575 30.2119 22.6191 30.228 22.3722C30.2441 22.1252 30.1919 21.8786 30.0766 21.6572L27.1368 16.0322C27.0149 15.7968 26.8266 15.5987 26.5931 15.4605C26.3596 15.3222 26.0903 15.2493 25.8157 15.25C23.8665 15.25 21.9971 15.9908 20.6188 17.3094C19.2405 18.628 18.4662 20.4164 18.4662 22.2812C18.4711 26.3824 20.1761 30.3142 23.2073 33.2142C26.2385 36.1141 30.3483 37.7453 34.6351 37.75C35.6002 37.75 36.5559 37.5681 37.4476 37.2148C38.3393 36.8614 39.1495 36.3435 39.832 35.6906C40.5144 35.0377 41.0558 34.2626 41.4251 33.4095C41.7945 32.5564 41.9846 31.6421 41.9846 30.7188C41.9848 30.4575 41.9089 30.2014 41.7654 29.9791C41.622 29.7567 41.4167 29.5771 41.1724 29.4602ZM34.6351 34.9375C31.1277 34.9338 27.7651 33.5992 25.285 31.2265C22.8049 28.8538 21.4099 25.6368 21.406 22.2812C21.4057 21.3059 21.7587 20.3605 22.4049 19.6061C23.0511 18.8517 23.9506 18.3348 24.9503 18.1434L27.0596 22.1863L25.2645 24.7422C25.1303 24.9347 25.0479 25.1559 25.0245 25.3862C25.0011 25.6164 25.0375 25.8487 25.1304 26.0623C26.182 28.4536 28.1705 30.356 30.67 31.3621C30.894 31.4549 31.1386 31.4929 31.3817 31.4726C31.6249 31.4524 31.8589 31.3745 32.0628 31.2461L34.7472 29.534L38.9731 31.552C38.7715 32.5095 38.2288 33.3704 37.4377 33.9878C36.6466 34.6052 35.656 34.9409 34.6351 34.9375ZM30.2254 8.21875C26.9263 8.21806 23.6833 9.03453 20.8119 10.5887C17.9405 12.1428 15.5386 14.3817 13.84 17.0874C12.1414 19.7932 11.204 22.8735 11.1189 26.0287C11.0338 29.1838 11.8041 32.3063 13.3546 35.0922L11.2692 41.0775C11.0965 41.5731 11.0714 42.1049 11.1968 42.6133C11.3222 43.1217 11.5932 43.5867 11.9793 43.956C12.3654 44.3254 12.8514 44.5846 13.3828 44.7046C13.9142 44.8246 14.4701 44.8006 14.9881 44.6354L21.2443 42.6402C23.807 43.9443 26.6466 44.6726 29.5474 44.77C32.4483 44.8674 35.3343 44.3312 37.9862 43.2023C40.6381 42.0733 42.9864 40.3811 44.8527 38.2543C46.719 36.1274 48.0544 33.6218 48.7573 30.9275C49.4603 28.2332 49.5125 25.4211 48.9099 22.7046C48.3072 19.9881 47.0657 17.4387 45.2794 15.2499C43.4931 13.061 41.2091 11.2902 38.6007 10.0719C35.9923 8.85365 33.128 8.21989 30.2254 8.21875ZM30.2254 41.9688C27.3829 41.9706 24.5903 41.2545 22.1299 39.8928C21.9498 39.7928 21.7495 39.7306 21.5423 39.7103C21.3352 39.69 21.1259 39.7121 20.9283 39.775L14.0565 41.9688L16.3477 35.3945C16.4138 35.2056 16.4371 35.0054 16.4162 34.8073C16.3953 34.6091 16.3306 34.4174 16.2265 34.2449C14.4441 31.2969 13.7286 27.8686 14.1907 24.4918C14.6528 21.115 16.2669 17.9785 18.7824 15.5689C21.2979 13.1592 24.5744 11.6111 28.1034 11.1647C31.6324 10.7183 35.2168 11.3986 38.3005 13.1C41.3842 14.8014 43.7948 17.4288 45.1584 20.5747C46.5219 23.7205 46.7622 27.209 45.842 30.4988C44.9218 33.7887 42.8924 36.696 40.0688 38.7699C37.2452 40.8438 33.7851 41.9682 30.2254 41.9688Z" fill="#005AE5"/>
<path d="M60.154 22L62.97 14.3H64.444L67.26 22H65.863L63.421 15.037H63.982L61.54 22H60.154ZM61.452 20.185L61.815 19.14H65.599L65.962 20.185H61.452ZM69.5792 22C69.2272 22 68.9302 21.9597 68.6882 21.879C68.4462 21.791 68.2629 21.6297 68.1382 21.395C68.0135 21.1603 67.9512 20.8193 67.9512 20.372V17.655H67.0162V16.544H67.9512V15.114H69.2712V16.544H70.7012V17.655H69.2712V20.196C69.2712 20.394 69.2895 20.5407 69.3262 20.636C69.3702 20.7313 69.4435 20.7973 69.5462 20.834C69.6489 20.8633 69.7992 20.878 69.9972 20.878H70.6462V22H69.5792ZM73.7255 22.132C73.1755 22.132 72.6878 22.0147 72.2625 21.78C71.8445 21.538 71.5145 21.2043 71.2725 20.779C71.0378 20.3537 70.9205 19.8623 70.9205 19.305C70.9205 18.7403 71.0378 18.2417 71.2725 17.809C71.5072 17.369 71.8372 17.028 72.2625 16.786C72.6878 16.5367 73.1792 16.412 73.7365 16.412C74.2718 16.412 74.7412 16.5293 75.1445 16.764C75.5552 16.9987 75.8705 17.3177 76.0905 17.721C76.3178 18.117 76.4315 18.5643 76.4315 19.063C76.4315 19.1363 76.4315 19.217 76.4315 19.305C76.4315 19.393 76.4242 19.4883 76.4095 19.591H71.8775V18.733H75.1005C75.0785 18.3517 74.9392 18.051 74.6825 17.831C74.4258 17.6037 74.1105 17.49 73.7365 17.49C73.4652 17.49 73.2122 17.5523 72.9775 17.677C72.7502 17.7943 72.5668 17.974 72.4275 18.216C72.2882 18.4507 72.2185 18.7513 72.2185 19.118V19.437C72.2185 19.7743 72.2845 20.064 72.4165 20.306C72.5558 20.548 72.7392 20.7313 72.9665 20.856C73.1938 20.9807 73.4468 21.043 73.7255 21.043C74.0262 21.043 74.2792 20.977 74.4845 20.845C74.6898 20.7057 74.8402 20.5223 74.9355 20.295H76.2775C76.1822 20.647 76.0135 20.9623 75.7715 21.241C75.5368 21.5123 75.2472 21.7287 74.9025 21.89C74.5578 22.0513 74.1655 22.132 73.7255 22.132ZM77.2636 22V16.544H78.5836V17.391C78.7669 17.0903 79.0126 16.852 79.3206 16.676C79.6359 16.5 79.9952 16.412 80.3986 16.412C81.0732 16.412 81.5976 16.6247 81.9716 17.05C82.3456 17.468 82.5326 18.084 82.5326 18.898V22H81.2126V19.03C81.2126 18.5387 81.1099 18.1683 80.9046 17.919C80.7066 17.6623 80.4022 17.534 79.9916 17.534C79.5882 17.534 79.2509 17.677 78.9796 17.963C78.7156 18.249 78.5836 18.656 78.5836 19.184V22H77.2636ZM85.9793 22.132C85.4659 22.132 85.0039 22.0073 84.5933 21.758C84.1899 21.5087 83.8709 21.1677 83.6363 20.735C83.4089 20.295 83.2953 19.8037 83.2953 19.261C83.2953 18.711 83.4089 18.2233 83.6363 17.798C83.8709 17.3653 84.1899 17.028 84.5933 16.786C85.0039 16.5367 85.4696 16.412 85.9903 16.412C86.4083 16.412 86.7749 16.4927 87.0903 16.654C87.4056 16.8153 87.6549 17.039 87.8383 17.325V14.08H89.1583V22H87.8383V21.197C87.6696 21.439 87.4349 21.6553 87.1343 21.846C86.8336 22.0367 86.4486 22.132 85.9793 22.132ZM86.2433 20.977C86.5586 20.977 86.8373 20.9037 87.0793 20.757C87.3213 20.6103 87.5119 20.4087 87.6513 20.152C87.7906 19.8953 87.8603 19.602 87.8603 19.272C87.8603 18.9347 87.7906 18.6377 87.6513 18.381C87.5119 18.1243 87.3213 17.9263 87.0793 17.787C86.8373 17.6403 86.5586 17.567 86.2433 17.567C85.9353 17.567 85.6603 17.6403 85.4183 17.787C85.1763 17.9263 84.9856 18.1243 84.8463 18.381C84.7069 18.6377 84.6373 18.931 84.6373 19.261C84.6373 19.5983 84.7069 19.8953 84.8463 20.152C84.9856 20.4087 85.1763 20.6103 85.4183 20.757C85.6603 20.9037 85.9353 20.977 86.2433 20.977ZM90.1544 22V16.544H91.4744V22H90.1544ZM90.1544 15.609V14.256H91.4854V15.609H90.1544ZM92.4855 22V16.544H93.8055V17.237C93.9815 16.9803 94.2125 16.7787 94.4985 16.632C94.7845 16.4853 95.1108 16.412 95.4775 16.412C95.8955 16.412 96.2548 16.4963 96.5555 16.665C96.8562 16.8263 97.0945 17.072 97.2705 17.402C97.4685 17.094 97.7325 16.852 98.0625 16.676C98.3998 16.5 98.7665 16.412 99.1625 16.412C99.8592 16.412 100.398 16.6247 100.779 17.05C101.161 17.468 101.351 18.084 101.351 18.898V22H100.042V19.03C100.042 18.5387 99.9472 18.1683 99.7565 17.919C99.5658 17.6623 99.2798 17.534 98.8985 17.534C98.5098 17.534 98.1945 17.677 97.9525 17.963C97.7105 18.249 97.5895 18.656 97.5895 19.184V22H96.2695V19.03C96.2695 18.5387 96.1705 18.1683 95.9725 17.919C95.7818 17.6623 95.4922 17.534 95.1035 17.534C94.7222 17.534 94.4105 17.677 94.1685 17.963C93.9265 18.249 93.8055 18.656 93.8055 19.184V22H92.4855ZM104.953 22.132C104.403 22.132 103.915 22.0147 103.49 21.78C103.072 21.538 102.742 21.2043 102.5 20.779C102.265 20.3537 102.148 19.8623 102.148 19.305C102.148 18.7403 102.265 18.2417 102.5 17.809C102.735 17.369 103.065 17.028 103.49 16.786C103.915 16.5367 104.407 16.412 104.964 16.412C105.499 16.412 105.969 16.5293 106.372 16.764C106.783 16.9987 107.098 17.3177 107.318 17.721C107.545 18.117 107.659 18.5643 107.659 19.063C107.659 19.1363 107.659 19.217 107.659 19.305C107.659 19.393 107.652 19.4883 107.637 19.591H103.105V18.733H106.328C106.306 18.3517 106.167 18.051 105.91 17.831C105.653 17.6037 105.338 17.49 104.964 17.49C104.693 17.49 104.44 17.5523 104.205 17.677C103.978 17.7943 103.794 17.974 103.655 18.216C103.516 18.4507 103.446 18.7513 103.446 19.118V19.437C103.446 19.7743 103.512 20.064 103.644 20.306C103.783 20.548 103.967 20.7313 104.194 20.856C104.421 20.9807 104.674 21.043 104.953 21.043C105.254 21.043 105.507 20.977 105.712 20.845C105.917 20.7057 106.068 20.5223 106.163 20.295H107.505C107.41 20.647 107.241 20.9623 106.999 21.241C106.764 21.5123 106.475 21.7287 106.13 21.89C105.785 22.0513 105.393 22.132 104.953 22.132ZM108.491 22V16.544H109.811V17.391C109.994 17.0903 110.24 16.852 110.548 16.676C110.863 16.5 111.223 16.412 111.626 16.412C112.301 16.412 112.825 16.6247 113.199 17.05C113.573 17.468 113.76 18.084 113.76 18.898V22H112.44V19.03C112.44 18.5387 112.337 18.1683 112.132 17.919C111.934 17.6623 111.63 17.534 111.219 17.534C110.816 17.534 110.478 17.677 110.207 17.963C109.943 18.249 109.811 18.656 109.811 19.184V22H108.491ZM116.727 22C116.375 22 116.078 21.9597 115.836 21.879C115.594 21.791 115.41 21.6297 115.286 21.395C115.161 21.1603 115.099 20.8193 115.099 20.372V17.655H114.164V16.544H115.099V15.114H116.419V16.544H117.849V17.655H116.419V20.196C116.419 20.394 116.437 20.5407 116.474 20.636C116.518 20.7313 116.591 20.7973 116.694 20.834C116.796 20.8633 116.947 20.878 117.145 20.878H117.794V22H116.727ZM120.961 22.132C120.418 22.132 119.927 22.0147 119.487 21.78C119.054 21.538 118.71 21.2007 118.453 20.768C118.196 20.3353 118.068 19.8367 118.068 19.272C118.068 18.7 118.196 18.2013 118.453 17.776C118.71 17.3433 119.058 17.0097 119.498 16.775C119.938 16.533 120.426 16.412 120.961 16.412C121.511 16.412 122.002 16.533 122.435 16.775C122.868 17.0097 123.212 17.3433 123.469 17.776C123.726 18.2013 123.854 18.7 123.854 19.272C123.854 19.8367 123.726 20.3353 123.469 20.768C123.212 21.2007 122.864 21.538 122.424 21.78C121.991 22.0147 121.504 22.132 120.961 22.132ZM120.961 20.988C121.24 20.988 121.493 20.9257 121.72 20.801C121.955 20.669 122.142 20.4783 122.281 20.229C122.42 19.9723 122.49 19.6533 122.49 19.272C122.49 18.8907 122.42 18.5753 122.281 18.326C122.142 18.0693 121.955 17.8787 121.72 17.754C121.493 17.622 121.243 17.556 120.972 17.556C120.693 17.556 120.437 17.622 120.202 17.754C119.967 17.8787 119.78 18.0693 119.641 18.326C119.502 18.5753 119.432 18.8907 119.432 19.272C119.432 19.6533 119.502 19.9723 119.641 20.229C119.78 20.4783 119.964 20.669 120.191 20.801C120.426 20.9257 120.682 20.988 120.961 20.988ZM127.999 22V16.544H129.319V17.38C129.458 17.1087 129.638 16.896 129.858 16.742C130.078 16.5807 130.331 16.5 130.617 16.5H131.354V17.677H130.485C130.228 17.677 130.012 17.7467 129.836 17.886C129.667 18.018 129.539 18.227 129.451 18.513C129.363 18.7917 129.319 19.1437 129.319 19.569V22H127.999ZM133.778 22.132C133.36 22.132 133.005 22.0587 132.711 21.912C132.418 21.758 132.194 21.5563 132.04 21.307C131.886 21.0577 131.809 20.7863 131.809 20.493C131.809 19.921 132.015 19.4773 132.425 19.162C132.843 18.8467 133.39 18.689 134.064 18.689C134.372 18.689 134.644 18.7147 134.878 18.766C135.12 18.81 135.315 18.854 135.461 18.898V18.645C135.461 18.2417 135.348 17.9447 135.12 17.754C134.9 17.5633 134.611 17.468 134.251 17.468C133.987 17.468 133.753 17.523 133.547 17.633C133.342 17.7357 133.21 17.9263 133.151 18.205H131.897C131.941 17.809 132.073 17.479 132.293 17.215C132.513 16.951 132.792 16.753 133.129 16.621C133.474 16.4817 133.848 16.412 134.251 16.412C135.051 16.412 135.67 16.61 136.11 17.006C136.558 17.3947 136.781 17.941 136.781 18.645V19.976C136.781 20.2547 136.796 20.46 136.825 20.592C136.862 20.7167 136.917 20.7973 136.99 20.834C137.071 20.8633 137.174 20.878 137.298 20.878H137.353V22H137.056C136.682 22 136.367 21.9487 136.11 21.846C135.861 21.736 135.685 21.5233 135.582 21.208C135.399 21.472 135.157 21.692 134.856 21.868C134.556 22.044 134.196 22.132 133.778 22.132ZM134.064 21.109C134.321 21.109 134.541 21.0503 134.724 20.933C134.908 20.8083 135.054 20.647 135.164 20.449C135.282 20.2437 135.359 20.02 135.395 19.778C135.241 19.734 135.058 19.69 134.845 19.646C134.633 19.602 134.416 19.58 134.196 19.58C133.866 19.58 133.606 19.6533 133.415 19.8C133.232 19.9467 133.14 20.1447 133.14 20.394C133.14 20.5993 133.221 20.7717 133.382 20.911C133.551 21.043 133.778 21.109 134.064 21.109ZM134.031 15.884L135.043 13.772H136.308L134.966 15.884H134.031ZM138.043 24.42V16.544H139.363V17.347C139.539 17.0977 139.777 16.8813 140.078 16.698C140.379 16.5073 140.76 16.412 141.222 16.412C141.743 16.412 142.205 16.5367 142.608 16.786C143.011 17.0353 143.327 17.3763 143.554 17.809C143.789 18.2417 143.906 18.733 143.906 19.283C143.906 19.8257 143.789 20.3133 143.554 20.746C143.327 21.1787 143.011 21.5197 142.608 21.769C142.205 22.011 141.743 22.132 141.222 22.132C140.804 22.132 140.437 22.0513 140.122 21.89C139.807 21.7287 139.554 21.505 139.363 21.219V24.42H138.043ZM140.958 20.977C141.273 20.977 141.552 20.9037 141.794 20.757C142.036 20.6103 142.223 20.4123 142.355 20.163C142.494 19.9063 142.564 19.613 142.564 19.283C142.564 18.9457 142.494 18.6487 142.355 18.392C142.223 18.128 142.036 17.9263 141.794 17.787C141.552 17.6403 141.273 17.567 140.958 17.567C140.643 17.567 140.364 17.6403 140.122 17.787C139.88 17.9263 139.689 18.1243 139.55 18.381C139.411 18.6377 139.341 18.9347 139.341 19.272C139.341 19.6093 139.411 19.9063 139.55 20.163C139.689 20.4123 139.88 20.6103 140.122 20.757C140.364 20.9037 140.643 20.977 140.958 20.977ZM144.671 22V16.544H145.991V22H144.671ZM144.671 15.609V14.256H146.002V15.609H144.671ZM149.444 22.132C148.931 22.132 148.469 22.0073 148.058 21.758C147.655 21.5087 147.336 21.1677 147.101 20.735C146.874 20.295 146.76 19.8037 146.76 19.261C146.76 18.711 146.874 18.2233 147.101 17.798C147.336 17.3653 147.655 17.028 148.058 16.786C148.469 16.5367 148.934 16.412 149.455 16.412C149.873 16.412 150.24 16.4927 150.555 16.654C150.87 16.8153 151.12 17.039 151.303 17.325V14.08H152.623V22H151.303V21.197C151.134 21.439 150.9 21.6553 150.599 21.846C150.298 22.0367 149.913 22.132 149.444 22.132ZM149.708 20.977C150.023 20.977 150.302 20.9037 150.544 20.757C150.786 20.6103 150.977 20.4087 151.116 20.152C151.255 19.8953 151.325 19.602 151.325 19.272C151.325 18.9347 151.255 18.6377 151.116 18.381C150.977 18.1243 150.786 17.9263 150.544 17.787C150.302 17.6403 150.023 17.567 149.708 17.567C149.4 17.567 149.125 17.6403 148.883 17.787C148.641 17.9263 148.45 18.1243 148.311 18.381C148.172 18.6377 148.102 18.931 148.102 19.261C148.102 19.5983 148.172 19.8953 148.311 20.152C148.45 20.4087 148.641 20.6103 148.883 20.757C149.125 20.9037 149.4 20.977 149.708 20.977ZM156.281 22.132C155.739 22.132 155.247 22.0147 154.807 21.78C154.375 21.538 154.03 21.2007 153.773 20.768C153.517 20.3353 153.388 19.8367 153.388 19.272C153.388 18.7 153.517 18.2013 153.773 17.776C154.03 17.3433 154.378 17.0097 154.818 16.775C155.258 16.533 155.746 16.412 156.281 16.412C156.831 16.412 157.323 16.533 157.755 16.775C158.188 17.0097 158.533 17.3433 158.789 17.776C159.046 18.2013 159.174 18.7 159.174 19.272C159.174 19.8367 159.046 20.3353 158.789 20.768C158.533 21.2007 158.184 21.538 157.744 21.78C157.312 22.0147 156.824 22.132 156.281 22.132ZM156.281 20.988C156.56 20.988 156.813 20.9257 157.04 20.801C157.275 20.669 157.462 20.4783 157.601 20.229C157.741 19.9723 157.81 19.6533 157.81 19.272C157.81 18.8907 157.741 18.5753 157.601 18.326C157.462 18.0693 157.275 17.8787 157.04 17.754C156.813 17.622 156.564 17.556 156.292 17.556C156.014 17.556 155.757 17.622 155.522 17.754C155.288 17.8787 155.101 18.0693 154.961 18.326C154.822 18.5753 154.752 18.8907 154.752 19.272C154.752 19.6533 154.822 19.9723 154.961 20.229C155.101 20.4783 155.284 20.669 155.511 20.801C155.746 20.9257 156.003 20.988 156.281 20.988ZM165.068 22L163.055 16.544H164.43L165.871 20.746L167.301 16.544H168.676L166.652 22H165.068ZM169.4 22V16.544H170.72V22H169.4ZM169.4 15.609V14.256H170.731V15.609H169.4ZM173.557 22.132C173.139 22.132 172.783 22.0587 172.49 21.912C172.196 21.758 171.973 21.5563 171.819 21.307C171.665 21.0577 171.588 20.7863 171.588 20.493C171.588 19.921 171.793 19.4773 172.204 19.162C172.622 18.8467 173.168 18.689 173.843 18.689C174.151 18.689 174.422 18.7147 174.657 18.766C174.899 18.81 175.093 18.854 175.24 18.898V18.645C175.24 18.2417 175.126 17.9447 174.899 17.754C174.679 17.5633 174.389 17.468 174.03 17.468C173.766 17.468 173.531 17.523 173.326 17.633C173.12 17.7357 172.988 17.9263 172.93 18.205H171.676C171.72 17.809 171.852 17.479 172.072 17.215C172.292 16.951 172.57 16.753 172.908 16.621C173.252 16.4817 173.626 16.412 174.03 16.412C174.829 16.412 175.449 16.61 175.889 17.006C176.336 17.3947 176.56 17.941 176.56 18.645V19.976C176.56 20.2547 176.574 20.46 176.604 20.592C176.64 20.7167 176.695 20.7973 176.769 20.834C176.849 20.8633 176.952 20.878 177.077 20.878H177.132V22H176.835C176.461 22 176.145 21.9487 175.889 21.846C175.639 21.736 175.463 21.5233 175.361 21.208C175.177 21.472 174.935 21.692 174.635 21.868C174.334 22.044 173.975 22.132 173.557 22.132ZM173.843 21.109C174.099 21.109 174.319 21.0503 174.503 20.933C174.686 20.8083 174.833 20.647 174.943 20.449C175.06 20.2437 175.137 20.02 175.174 19.778C175.02 19.734 174.836 19.69 174.624 19.646C174.411 19.602 174.195 19.58 173.975 19.58C173.645 19.58 173.384 19.6533 173.194 19.8C173.01 19.9467 172.919 20.1447 172.919 20.394C172.919 20.5993 172.999 20.7717 173.161 20.911C173.329 21.043 173.557 21.109 173.843 21.109ZM183.075 22L181.029 14.3H182.437L184.054 21.263H183.68L185.55 14.3H187.002L188.839 21.274H188.465L190.082 14.3H191.501L189.4 22H187.849L186.122 15.697H186.386L184.615 22H183.075ZM192.312 22V14.08H193.632V17.391C193.815 17.0903 194.065 16.852 194.38 16.676C194.703 16.5 195.066 16.412 195.469 16.412C196.129 16.412 196.646 16.6247 197.02 17.05C197.394 17.468 197.581 18.084 197.581 18.898V22H196.272V19.03C196.272 18.5387 196.173 18.1683 195.975 17.919C195.784 17.6623 195.48 17.534 195.062 17.534C194.651 17.534 194.31 17.677 194.039 17.963C193.768 18.249 193.632 18.656 193.632 19.184V22H192.312ZM200.423 22.132C200.005 22.132 199.649 22.0587 199.356 21.912C199.062 21.758 198.839 21.5563 198.685 21.307C198.531 21.0577 198.454 20.7863 198.454 20.493C198.454 19.921 198.659 19.4773 199.07 19.162C199.488 18.8467 200.034 18.689 200.709 18.689C201.017 18.689 201.288 18.7147 201.523 18.766C201.765 18.81 201.959 18.854 202.106 18.898V18.645C202.106 18.2417 201.992 17.9447 201.765 17.754C201.545 17.5633 201.255 17.468 200.896 17.468C200.632 17.468 200.397 17.523 200.192 17.633C199.986 17.7357 199.854 17.9263 199.796 18.205H198.542C198.586 17.809 198.718 17.479 198.938 17.215C199.158 16.951 199.436 16.753 199.774 16.621C200.118 16.4817 200.492 16.412 200.896 16.412C201.695 16.412 202.315 16.61 202.755 17.006C203.202 17.3947 203.426 17.941 203.426 18.645V19.976C203.426 20.2547 203.44 20.46 203.47 20.592C203.506 20.7167 203.561 20.7973 203.635 20.834C203.715 20.8633 203.818 20.878 203.943 20.878H203.998V22H203.701C203.327 22 203.011 21.9487 202.755 21.846C202.505 21.736 202.329 21.5233 202.227 21.208C202.043 21.472 201.801 21.692 201.501 21.868C201.2 22.044 200.841 22.132 200.423 22.132ZM200.709 21.109C200.965 21.109 201.185 21.0503 201.369 20.933C201.552 20.8083 201.699 20.647 201.809 20.449C201.926 20.2437 202.003 20.02 202.04 19.778C201.886 19.734 201.702 19.69 201.49 19.646C201.277 19.602 201.061 19.58 200.841 19.58C200.511 19.58 200.25 19.6533 200.06 19.8C199.876 19.9467 199.785 20.1447 199.785 20.394C199.785 20.5993 199.865 20.7717 200.027 20.911C200.195 21.043 200.423 21.109 200.709 21.109ZM206.639 22C206.287 22 205.99 21.9597 205.748 21.879C205.506 21.791 205.322 21.6297 205.198 21.395C205.073 21.1603 205.011 20.8193 205.011 20.372V17.655H204.076V16.544H205.011V15.114H206.331V16.544H207.761V17.655H206.331V20.196C206.331 20.394 206.349 20.5407 206.386 20.636C206.43 20.7313 206.503 20.7973 206.606 20.834C206.708 20.8633 206.859 20.878 207.057 20.878H207.706V22H206.639ZM210.562 22.132C209.859 22.132 209.276 21.967 208.814 21.637C208.352 21.307 208.088 20.8523 208.022 20.273H209.375C209.426 20.5297 209.562 20.735 209.782 20.889C210.009 21.0357 210.284 21.109 210.607 21.109C210.937 21.109 211.19 21.0467 211.366 20.922C211.549 20.79 211.641 20.6287 211.641 20.438C211.641 20.284 211.578 20.1667 211.454 20.086C211.336 19.998 211.124 19.932 210.816 19.888C210.698 19.866 210.552 19.844 210.376 19.822C210.207 19.7927 210.06 19.7633 209.936 19.734C209.65 19.6827 209.382 19.5947 209.133 19.47C208.883 19.338 208.682 19.162 208.528 18.942C208.381 18.722 208.308 18.4507 208.308 18.128C208.308 17.644 208.487 17.237 208.847 16.907C209.213 16.577 209.734 16.412 210.409 16.412C211.083 16.412 211.622 16.5623 212.026 16.863C212.429 17.1563 212.66 17.589 212.719 18.161H211.432C211.41 17.919 211.3 17.7393 211.102 17.622C210.911 17.5047 210.68 17.446 210.409 17.446C210.115 17.446 209.888 17.5047 209.727 17.622C209.565 17.732 209.485 17.8713 209.485 18.04C209.485 18.3407 209.738 18.535 210.244 18.623C210.317 18.6377 210.409 18.656 210.519 18.678C210.636 18.6927 210.753 18.711 210.871 18.733C210.988 18.7477 211.087 18.7623 211.168 18.777C211.366 18.799 211.564 18.843 211.762 18.909C211.967 18.975 212.154 19.0667 212.323 19.184C212.491 19.294 212.623 19.4407 212.719 19.624C212.821 19.8073 212.873 20.0383 212.873 20.317C212.873 20.6763 212.781 20.9917 212.598 21.263C212.422 21.5343 212.161 21.747 211.817 21.901C211.472 22.055 211.054 22.132 210.562 22.132ZM213.413 22L216.229 14.3H217.703L220.519 22H219.122L216.68 15.037H217.241L214.799 22H213.413ZM214.711 20.185L215.074 19.14H218.858L219.221 20.185H214.711ZM221.166 24.42V16.544H222.486V17.347C222.662 17.0977 222.9 16.8813 223.201 16.698C223.502 16.5073 223.883 16.412 224.345 16.412C224.866 16.412 225.328 16.5367 225.731 16.786C226.134 17.0353 226.45 17.3763 226.677 17.809C226.912 18.2417 227.029 18.733 227.029 19.283C227.029 19.8257 226.912 20.3133 226.677 20.746C226.45 21.1787 226.134 21.5197 225.731 21.769C225.328 22.011 224.866 22.132 224.345 22.132C223.927 22.132 223.56 22.0513 223.245 21.89C222.93 21.7287 222.677 21.505 222.486 21.219V24.42H221.166ZM224.081 20.977C224.396 20.977 224.675 20.9037 224.917 20.757C225.159 20.6103 225.346 20.4123 225.478 20.163C225.617 19.9063 225.687 19.613 225.687 19.283C225.687 18.9457 225.617 18.6487 225.478 18.392C225.346 18.128 225.159 17.9263 224.917 17.787C224.675 17.6403 224.396 17.567 224.081 17.567C223.766 17.567 223.487 17.6403 223.245 17.787C223.003 17.9263 222.812 18.1243 222.673 18.381C222.534 18.6377 222.464 18.9347 222.464 19.272C222.464 19.6093 222.534 19.9063 222.673 20.163C222.812 20.4123 223.003 20.6103 223.245 20.757C223.487 20.9037 223.766 20.977 224.081 20.977ZM227.783 24.42V16.544H229.103V17.347C229.279 17.0977 229.517 16.8813 229.818 16.698C230.119 16.5073 230.5 16.412 230.962 16.412C231.483 16.412 231.945 16.5367 232.348 16.786C232.751 17.0353 233.067 17.3763 233.294 17.809C233.529 18.2417 233.646 18.733 233.646 19.283C233.646 19.8257 233.529 20.3133 233.294 20.746C233.067 21.1787 232.751 21.5197 232.348 21.769C231.945 22.011 231.483 22.132 230.962 22.132C230.544 22.132 230.177 22.0513 229.862 21.89C229.547 21.7287 229.294 21.505 229.103 21.219V24.42H227.783ZM230.698 20.977C231.013 20.977 231.292 20.9037 231.534 20.757C231.776 20.6103 231.963 20.4123 232.095 20.163C232.234 19.9063 232.304 19.613 232.304 19.283C232.304 18.9457 232.234 18.6487 232.095 18.392C231.963 18.128 231.776 17.9263 231.534 17.787C231.292 17.6403 231.013 17.567 230.698 17.567C230.383 17.567 230.104 17.6403 229.862 17.787C229.62 17.9263 229.429 18.1243 229.29 18.381C229.151 18.6377 229.081 18.9347 229.081 19.272C229.081 19.6093 229.151 19.9063 229.29 20.163C229.429 20.4123 229.62 20.6103 229.862 20.757C230.104 20.9037 230.383 20.977 230.698 20.977Z" fill="#005AE5"/>
<path d="M63.172 40.885C62.6693 40.3823 62.2273 39.8103 61.846 39.169C61.4647 38.5363 61.1657 37.843 60.949 37.089C60.741 36.3263 60.637 35.5203 60.637 34.671C60.637 33.813 60.741 33.007 60.949 32.253C61.1657 31.499 61.4647 30.8013 61.846 30.16C62.2273 29.5187 62.6693 28.951 63.172 28.457H64.732C64.4027 28.8297 64.082 29.237 63.77 29.679C63.4667 30.121 63.1937 30.602 62.951 31.122C62.7083 31.6333 62.5177 32.188 62.379 32.786C62.2403 33.3753 62.171 34.0037 62.171 34.671C62.171 35.3383 62.2403 35.971 62.379 36.569C62.5177 37.1583 62.7083 37.713 62.951 38.233C63.1937 38.7443 63.4667 39.221 63.77 39.663C64.082 40.105 64.4027 40.5123 64.732 40.885H63.172ZM69.227 39.156C68.5683 39.156 67.9746 39.0433 67.446 38.818C66.9173 38.5927 66.497 38.2807 66.185 37.882C65.873 37.4747 65.717 37.0067 65.717 36.478C65.717 36.1053 65.7863 35.763 65.925 35.451C66.0723 35.139 66.2716 34.866 66.523 34.632C66.783 34.398 67.0863 34.2247 67.433 34.112C66.9823 33.9387 66.627 33.6787 66.367 33.332C66.107 32.9853 65.977 32.5997 65.977 32.175C65.977 31.7417 66.0983 31.343 66.341 30.979C66.5923 30.6063 66.9606 30.3073 67.446 30.082C67.9313 29.8567 68.525 29.744 69.227 29.744C69.9376 29.744 70.5313 29.8567 71.008 30.082C71.4933 30.3073 71.8573 30.6063 72.1 30.979C72.3513 31.343 72.477 31.7417 72.477 32.175C72.477 32.5997 72.347 32.9853 72.087 33.332C71.827 33.6787 71.4716 33.9387 71.021 34.112C71.3676 34.2247 71.6666 34.398 71.918 34.632C72.178 34.866 72.3773 35.139 72.516 35.451C72.6633 35.763 72.737 36.1053 72.737 36.478C72.737 37.0067 72.581 37.4747 72.269 37.882C71.957 38.2807 71.5366 38.5927 71.008 38.818C70.4793 39.0433 69.8856 39.156 69.227 39.156ZM69.227 37.843C69.8856 37.843 70.3796 37.713 70.709 37.453C71.0383 37.193 71.203 36.8247 71.203 36.348C71.203 35.8367 71.0296 35.4553 70.683 35.204C70.345 34.9527 69.8596 34.827 69.227 34.827C68.5943 34.827 68.1046 34.9527 67.758 35.204C67.42 35.4553 67.251 35.8367 67.251 36.348C67.251 36.8247 67.4156 37.193 67.745 37.453C68.0743 37.713 68.5683 37.843 69.227 37.843ZM69.227 33.644C69.7903 33.644 70.2193 33.5313 70.514 33.306C70.8086 33.0807 70.956 32.76 70.956 32.344C70.956 31.902 70.8086 31.5727 70.514 31.356C70.2193 31.1307 69.7903 31.018 69.227 31.018C68.6636 31.018 68.2346 31.1307 67.94 31.356C67.6453 31.5727 67.498 31.902 67.498 32.344C67.498 32.76 67.6453 33.0807 67.94 33.306C68.2433 33.5313 68.6723 33.644 69.227 33.644ZM77.123 38.402V32.227H74.705V31.096L76.577 30.953C76.7417 30.9357 76.8717 30.8837 76.967 30.797C77.071 30.7103 77.123 30.5847 77.123 30.42V29.9H78.683V38.402H77.123ZM74.38 39V37.726H81.309V39H74.38ZM82.1851 40.885C82.5231 40.5123 82.8438 40.105 83.1471 39.663C83.4504 39.221 83.7234 38.7443 83.9661 38.233C84.2088 37.713 84.3994 37.1583 84.5381 36.569C84.6768 35.971 84.7461 35.3383 84.7461 34.671C84.7461 34.0037 84.6768 33.3753 84.5381 32.786C84.3994 32.188 84.2088 31.6333 83.9661 31.122C83.7234 30.602 83.4504 30.121 83.1471 29.679C82.8438 29.237 82.5231 28.8297 82.1851 28.457H83.7451C84.2478 28.951 84.6898 29.5187 85.0711 30.16C85.4524 30.8013 85.7471 31.499 85.9551 32.253C86.1718 33.007 86.2801 33.813 86.2801 34.671C86.2801 35.5203 86.1718 36.3263 85.9551 37.089C85.7471 37.843 85.4524 38.5363 85.0711 39.169C84.6898 39.8103 84.2478 40.3823 83.7451 40.885H82.1851ZM94.9694 39.156C94.3281 39.156 93.7821 39.0347 93.3314 38.792C92.8807 38.5493 92.5297 38.2287 92.2784 37.83C92.0357 37.4313 91.8841 37.0067 91.8234 36.556H93.2794C93.3661 36.972 93.5567 37.2927 93.8514 37.518C94.1461 37.7433 94.5231 37.856 94.9824 37.856C95.7191 37.856 96.2911 37.518 96.6984 36.842C97.1057 36.166 97.2791 35.1303 97.2184 33.735L97.3614 34.281C97.2314 34.541 97.0407 34.788 96.7894 35.022C96.5467 35.2473 96.2477 35.4293 95.8924 35.568C95.5457 35.698 95.1514 35.763 94.7094 35.763C94.1721 35.763 93.6651 35.6417 93.1884 35.399C92.7204 35.1563 92.3391 34.814 92.0444 34.372C91.7497 33.93 91.6024 33.41 91.6024 32.812C91.6024 32.2747 91.7367 31.772 92.0054 31.304C92.2827 30.836 92.6727 30.459 93.1754 30.173C93.6781 29.887 94.2587 29.744 94.9174 29.744C95.6367 29.744 96.2391 29.8697 96.7244 30.121C97.2097 30.3723 97.5997 30.7103 97.8944 31.135C98.1977 31.5597 98.4144 32.032 98.5444 32.552C98.6744 33.072 98.7394 33.6007 98.7394 34.138C98.7394 35.1433 98.5921 36.023 98.2974 36.777C98.0027 37.531 97.5737 38.116 97.0104 38.532C96.4471 38.948 95.7667 39.156 94.9694 39.156ZM95.0214 34.437C95.4287 34.437 95.7797 34.3677 96.0744 34.229C96.3691 34.0903 96.5944 33.8953 96.7504 33.644C96.9151 33.3927 96.9974 33.1023 96.9974 32.773C96.9974 32.435 96.9151 32.1403 96.7504 31.889C96.5944 31.629 96.3647 31.4297 96.0614 31.291C95.7667 31.1523 95.4157 31.083 95.0084 31.083C94.6184 31.083 94.2804 31.1523 93.9944 31.291C93.7171 31.4297 93.5004 31.6247 93.3444 31.876C93.1884 32.1187 93.1104 32.4133 93.1104 32.76C93.1104 33.1067 93.1884 33.4057 93.3444 33.657C93.5091 33.9083 93.7344 34.1033 94.0204 34.242C94.3064 34.372 94.6401 34.437 95.0214 34.437ZM107.411 39.156C106.769 39.156 106.223 39.0347 105.773 38.792C105.322 38.5493 104.971 38.2287 104.72 37.83C104.477 37.4313 104.325 37.0067 104.265 36.556H105.721C105.807 36.972 105.998 37.2927 106.293 37.518C106.587 37.7433 106.964 37.856 107.424 37.856C108.16 37.856 108.732 37.518 109.14 36.842C109.547 36.166 109.72 35.1303 109.66 33.735L109.803 34.281C109.673 34.541 109.482 34.788 109.231 35.022C108.988 35.2473 108.689 35.4293 108.334 35.568C107.987 35.698 107.593 35.763 107.151 35.763C106.613 35.763 106.106 35.6417 105.63 35.399C105.162 35.1563 104.78 34.814 104.486 34.372C104.191 33.93 104.044 33.41 104.044 32.812C104.044 32.2747 104.178 31.772 104.447 31.304C104.724 30.836 105.114 30.459 105.617 30.173C106.119 29.887 106.7 29.744 107.359 29.744C108.078 29.744 108.68 29.8697 109.166 30.121C109.651 30.3723 110.041 30.7103 110.336 31.135C110.639 31.5597 110.856 32.032 110.986 32.552C111.116 33.072 111.181 33.6007 111.181 34.138C111.181 35.1433 111.033 36.023 110.739 36.777C110.444 37.531 110.015 38.116 109.452 38.532C108.888 38.948 108.208 39.156 107.411 39.156ZM107.463 34.437C107.87 34.437 108.221 34.3677 108.516 34.229C108.81 34.0903 109.036 33.8953 109.192 33.644C109.356 33.3927 109.439 33.1023 109.439 32.773C109.439 32.435 109.356 32.1403 109.192 31.889C109.036 31.629 108.806 31.4297 108.503 31.291C108.208 31.1523 107.857 31.083 107.45 31.083C107.06 31.083 106.722 31.1523 106.436 31.291C106.158 31.4297 105.942 31.6247 105.786 31.876C105.63 32.1187 105.552 32.4133 105.552 32.76C105.552 33.1067 105.63 33.4057 105.786 33.657C105.95 33.9083 106.176 34.1033 106.462 34.242C106.748 34.372 107.081 34.437 107.463 34.437ZM115.463 38.402V32.227H113.045V31.096L114.917 30.953C115.082 30.9357 115.212 30.8837 115.307 30.797C115.411 30.7103 115.463 30.5847 115.463 30.42V29.9H117.023V38.402H115.463ZM112.72 39V37.726H119.649V39H112.72ZM124.685 39.156C123.966 39.156 123.363 39.0303 122.878 38.779C122.393 38.5277 121.998 38.1897 121.695 37.765C121.4 37.3403 121.188 36.868 121.058 36.348C120.928 35.828 120.863 35.2993 120.863 34.762C120.863 33.748 121.01 32.8683 121.305 32.123C121.6 31.369 122.029 30.784 122.592 30.368C123.155 29.952 123.836 29.744 124.633 29.744C125.283 29.744 125.829 29.8653 126.271 30.108C126.722 30.3507 127.073 30.6713 127.324 31.07C127.575 31.46 127.727 31.8847 127.779 32.344H126.323C126.236 31.928 126.046 31.6073 125.751 31.382C125.465 31.1567 125.088 31.044 124.62 31.044C123.883 31.044 123.311 31.382 122.904 32.058C122.497 32.734 122.323 33.7697 122.384 35.165L122.241 34.619C122.371 34.3503 122.557 34.1033 122.8 33.878C123.051 33.6527 123.355 33.475 123.71 33.345C124.065 33.2063 124.46 33.137 124.893 33.137C125.43 33.137 125.937 33.2583 126.414 33.501C126.891 33.7437 127.272 34.086 127.558 34.528C127.853 34.9613 128 35.4813 128 36.088C128 36.6253 127.861 37.128 127.584 37.596C127.315 38.064 126.93 38.441 126.427 38.727C125.924 39.013 125.344 39.156 124.685 39.156ZM124.594 37.817C124.984 37.817 125.318 37.7477 125.595 37.609C125.881 37.4703 126.102 37.2753 126.258 37.024C126.414 36.7727 126.492 36.478 126.492 36.14C126.492 35.7933 126.41 35.4943 126.245 35.243C126.089 34.9917 125.868 34.801 125.582 34.671C125.305 34.5323 124.971 34.463 124.581 34.463C124.182 34.463 123.831 34.5323 123.528 34.671C123.233 34.8097 123.004 35.0047 122.839 35.256C122.683 35.5073 122.605 35.7977 122.605 36.127C122.605 36.465 122.683 36.7597 122.839 37.011C123.004 37.2623 123.233 37.4617 123.528 37.609C123.831 37.7477 124.187 37.817 124.594 37.817ZM133.14 39.156C132.421 39.156 131.818 39.0303 131.333 38.779C130.848 38.5277 130.453 38.1897 130.15 37.765C129.855 37.3403 129.643 36.868 129.513 36.348C129.383 35.828 129.318 35.2993 129.318 34.762C129.318 33.748 129.465 32.8683 129.76 32.123C130.055 31.369 130.484 30.784 131.047 30.368C131.61 29.952 132.291 29.744 133.088 29.744C133.738 29.744 134.284 29.8653 134.726 30.108C135.177 30.3507 135.528 30.6713 135.779 31.07C136.03 31.46 136.182 31.8847 136.234 32.344H134.778C134.691 31.928 134.501 31.6073 134.206 31.382C133.92 31.1567 133.543 31.044 133.075 31.044C132.338 31.044 131.766 31.382 131.359 32.058C130.952 32.734 130.778 33.7697 130.839 35.165L130.696 34.619C130.826 34.3503 131.012 34.1033 131.255 33.878C131.506 33.6527 131.81 33.475 132.165 33.345C132.52 33.2063 132.915 33.137 133.348 33.137C133.885 33.137 134.392 33.2583 134.869 33.501C135.346 33.7437 135.727 34.086 136.013 34.528C136.308 34.9613 136.455 35.4813 136.455 36.088C136.455 36.6253 136.316 37.128 136.039 37.596C135.77 38.064 135.385 38.441 134.882 38.727C134.379 39.013 133.799 39.156 133.14 39.156ZM133.049 37.817C133.439 37.817 133.773 37.7477 134.05 37.609C134.336 37.4703 134.557 37.2753 134.713 37.024C134.869 36.7727 134.947 36.478 134.947 36.14C134.947 35.7933 134.865 35.4943 134.7 35.243C134.544 34.9917 134.323 34.801 134.037 34.671C133.76 34.5323 133.426 34.463 133.036 34.463C132.637 34.463 132.286 34.5323 131.983 34.671C131.688 34.8097 131.459 35.0047 131.294 35.256C131.138 35.5073 131.06 35.7977 131.06 36.127C131.06 36.465 131.138 36.7597 131.294 37.011C131.459 37.2623 131.688 37.4617 131.983 37.609C132.286 37.7477 132.642 37.817 133.049 37.817ZM137.396 35.1V33.8H143.298V35.1H137.396ZM144.51 39V38.337C144.51 37.583 144.614 36.9677 144.822 36.491C145.039 36.0057 145.351 35.607 145.758 35.295C146.174 34.983 146.672 34.7013 147.253 34.45L147.695 34.242C148.25 33.9907 148.687 33.7393 149.008 33.488C149.329 33.228 149.489 32.89 149.489 32.474C149.489 32.2227 149.433 31.993 149.32 31.785C149.207 31.5683 149.034 31.395 148.8 31.265C148.566 31.1263 148.258 31.057 147.877 31.057C147.504 31.057 147.184 31.135 146.915 31.291C146.655 31.4383 146.456 31.6377 146.317 31.889C146.187 32.1403 146.122 32.4177 146.122 32.721H144.614C144.631 32.071 144.787 31.525 145.082 31.083C145.377 30.641 145.771 30.3073 146.265 30.082C146.768 29.8567 147.327 29.744 147.942 29.744C148.575 29.744 149.121 29.8567 149.58 30.082C150.039 30.2987 150.39 30.6063 150.633 31.005C150.884 31.395 151.01 31.8543 151.01 32.383C151.01 32.9983 150.811 33.553 150.412 34.047C150.013 34.5323 149.389 34.9743 148.54 35.373L147.773 35.737C147.34 35.9363 147.002 36.14 146.759 36.348C146.525 36.556 146.36 36.7727 146.265 36.998C146.178 37.2147 146.135 37.4573 146.135 37.726H151.127V39H144.51ZM156.215 39.156C155.435 39.156 154.768 38.9653 154.213 38.584C153.659 38.194 153.234 37.648 152.939 36.946C152.653 36.2353 152.51 35.4033 152.51 34.45C152.51 33.4967 152.653 32.669 152.939 31.967C153.234 31.2563 153.659 30.7103 154.213 30.329C154.768 29.939 155.435 29.744 156.215 29.744C157.004 29.744 157.671 29.939 158.217 30.329C158.772 30.7103 159.192 31.2563 159.478 31.967C159.773 32.669 159.92 33.4967 159.92 34.45C159.92 35.4033 159.773 36.2353 159.478 36.946C159.192 37.648 158.772 38.194 158.217 38.584C157.671 38.9653 157.004 39.156 156.215 39.156ZM156.215 37.765C156.961 37.765 157.502 37.4833 157.84 36.92C158.187 36.348 158.36 35.5247 158.36 34.45C158.36 33.3753 158.187 32.5563 157.84 31.993C157.502 31.4297 156.961 31.148 156.215 31.148C155.479 31.148 154.937 31.4297 154.59 31.993C154.244 32.5563 154.07 33.3753 154.07 34.45C154.07 35.5247 154.244 36.348 154.59 36.92C154.937 37.4833 155.479 37.765 156.215 37.765ZM165.45 39V37.271H160.848V36.023L165.242 29.9H166.88V35.906H168.115V37.271H166.88V39H165.45ZM165.502 36.608V30.914L165.892 31.031L162.083 36.491L161.823 35.906H166.126L165.502 36.608ZM173.125 39.156C172.345 39.156 171.678 38.9653 171.123 38.584C170.569 38.194 170.144 37.648 169.849 36.946C169.563 36.2353 169.42 35.4033 169.42 34.45C169.42 33.4967 169.563 32.669 169.849 31.967C170.144 31.2563 170.569 30.7103 171.123 30.329C171.678 29.939 172.345 29.744 173.125 29.744C173.914 29.744 174.581 29.939 175.127 30.329C175.682 30.7103 176.102 31.2563 176.388 31.967C176.683 32.669 176.83 33.4967 176.83 34.45C176.83 35.4033 176.683 36.2353 176.388 36.946C176.102 37.648 175.682 38.194 175.127 38.584C174.581 38.9653 173.914 39.156 173.125 39.156ZM173.125 37.765C173.871 37.765 174.412 37.4833 174.75 36.92C175.097 36.348 175.27 35.5247 175.27 34.45C175.27 33.3753 175.097 32.5563 174.75 31.993C174.412 31.4297 173.871 31.148 173.125 31.148C172.389 31.148 171.847 31.4297 171.5 31.993C171.154 32.5563 170.98 33.3753 170.98 34.45C170.98 35.5247 171.154 36.348 171.5 36.92C171.847 37.4833 172.389 37.765 173.125 37.765Z" fill="white"/>
</svg>
